<svg xmlns="http://www.w3.org/2000/svg" viewBox="0 0 24 24" fill="none"><path d="M6.915 4.03c-1.94 0-3.63 1.1-4.64 2.75C1.17 8.66.6 11.03.6 13.62c0 2.37.43 4.48 1.27 6.08.82 1.56 2.12 2.57 3.73 2.57 1.18 0 2.13-.53 2.88-1.33.74-.8 1.31-1.88 1.76-3.13.87-2.42 1.3-5.53 1.3-8.26 0-1.6-.25-2.95-.8-3.94-.56-1-1.43-1.58-2.83-1.58zM17.085 4.03c-1.4 0-2.27.58-2.83 1.58-.55.99-.8 2.34-.8 3.94 0 2.73.43 5.84 1.3 8.26.45 1.25 1.02 2.33 1.76 3.13.75.8 1.7 1.33 2.88 1.33 1.61 0 2.91-1.01 3.73-2.57.84-1.6 1.27-3.71 1.27-6.08 0-2.59-.57-4.96-1.67-6.84-1.01-1.65-2.7-2.75-4.64-2.75z" fill="#0668E1"/></svg>